
        <svg xmlns="http://www.w3.org/2000/svg" xmlns:xlink="http://www.w3.org/1999/xlink" version="1.1" width="3167.5977653631285" 
        height="1043.5291620960752" viewBox="-150.83798882681563 -83.79888268156424 3167.5977653631285 1043.5291620960752">
			
			<g transform="scale(8.379888268156424) translate(10, 10)">
				<defs id="SvgjsDefs5240"><linearGradient id="SvgjsLinearGradient5245"><stop id="SvgjsStop5246" stop-color="#2d388a" offset="0"></stop><stop id="SvgjsStop5247" stop-color="#00aeef" offset="1"></stop></linearGradient></defs><g id="SvgjsG5241" featureKey="PG4fjM-0" transform="matrix(0.2248873915917591,0,0,0.2248873915917591,-63.20236570994358,-38.898029819541044)" fill="url(#SvgjsLinearGradient5245)"><g xmlns="http://www.w3.org/2000/svg"><g><path d="M423.667,548.833c-7.5-0.5-9.833-9.667-9.833-9.667C410,526.166,398.667,517,398.667,517    C378.333,498.167,296,447.5,296,447.5C270.5,436,216,419,216,419c-12-6-15-20-15-20c5,0.5,26.5-8.5,26.5-8.5l-26.5-31l26-9.5    l-26-23.5l29-17.5c-19-145.5,109-180.5,109-180.5s-9.5,138,8,153.5c0,0,35.834-27.5,76.667-29"></path><path d="M423,548.834c7.5-0.5,9.834-9.668,9.834-9.668C436.666,526.166,448,517,448,517c20.334-18.832,102.667-69.5,102.667-69.5    c25.5-11.5,80-28.5,80-28.5c12-6,15-20,15-20c-5,0.5-26.5-8.5-26.5-8.5l26.5-31l-26-9.5l26-23.5l-29-17.5    c19-145.5-109-180.5-109-180.5s9.5,138-8,153.5c0,0-35.834-27.5-76.667-29"></path></g><path fill="url(#SvgjsLinearGradient5245)" d="M526.875,349c-0.504-0.579-1.638-0.396-2.262-0.281c-3.223,0.598-6.087,3.236-8.14,5.617   c-3.188,3.697-5.497,8.293-8.43,12.216c-2.324,3.109-5.007,5.961-7.836,8.615c-6.988,6.558-16.157,10.835-25.915,10.476   c-6.823-0.251-13.843-3.613-19.418-7.393c0,0,14.125-32.125,61-32C515.875,346.25,523.5,345.125,526.875,349z"></path><path fill="url(#SvgjsLinearGradient5245)" d="M331.347,349.455c0.504-0.579,1.638-0.396,2.262-0.281c3.223,0.598,6.087,3.236,8.14,5.617   c3.188,3.697,5.497,8.293,8.43,12.216c2.324,3.109,5.007,5.961,7.836,8.615c6.988,6.558,16.157,10.835,25.915,10.476   c6.823-0.251,13.843-3.613,19.418-7.393c0,0-14.125-32.125-61-32C342.347,346.705,334.722,345.58,331.347,349.455z"></path></g></g><g id="SvgjsG5242" featureKey="jxYttZ-0" transform="matrix(3.742769484370158,0,0,3.742769484370158,117.75433822014332,-3.1993863905911084)" fill="#0294fd"><path d="M5 18.36 c0.64 0.26 1.14 0.08 1.44 -0.06 l0 1.6 c-0.26 0.16 -0.64 0.3 -1.18 0.3 c-1.18 0 -2.22 -0.38 -2.86 -1.42 c-0.6 -1 -0.6 -1.54 -0.6 -3.1 l0 -3.88 l-1.2 0 l0 -1.68 l1.2 0 l0 -3.12 l2.06 0 l0 3.12 l2.58 0 l0 1.68 l-2.58 0 l0 3.88 c0 1.64 0.16 2.24 1.14 2.68 z M18.16 15.08 l0 0.74 l-7.78 0 c0 1.82 1.74 2.7 3.02 2.7 c0.94 0 1.98 -0.5 2.54 -1.3 l1.42 1.28 c-0.66 0.9 -1.74 1.7 -3.96 1.7 c-3.2 0 -5.16 -2.18 -5.16 -5.12 s1.9 -5.14 4.96 -5.14 s4.46 1.7 4.88 4.18 c0.06 0.32 0.08 0.64 0.08 0.96 z M10.42 14.120000000000001 l5.58 0 c0 -1.6 -1.28 -2.48 -2.8 -2.48 s-2.78 1.02 -2.78 2.48 z M29.48 15.08 l0 0.74 l-7.78 0 c0 1.82 1.74 2.7 3.02 2.7 c0.94 0 1.98 -0.5 2.54 -1.3 l1.42 1.28 c-0.66 0.9 -1.74 1.7 -3.96 1.7 c-3.2 0 -5.16 -2.18 -5.16 -5.12 s1.9 -5.14 4.96 -5.14 s4.46 1.7 4.88 4.18 c0.06 0.32 0.08 0.64 0.08 0.96 z M21.740000000000002 14.120000000000001 l5.58 0 c0 -1.6 -1.28 -2.48 -2.8 -2.48 s-2.78 1.02 -2.78 2.48 z M40.36 14.3 l0 5.7 l-2.08 0 l0.02 -0.08 l0 -5.42 c0 -2 -0.52 -2.88 -2.22 -2.88 c-1.92 0 -2.6 1.34 -2.6 3.08 l0 5.3 l-2.06 0 l0 -9.88 l2.06 0 l0 1.6 c0.28 -0.88 1.42 -1.68 2.6 -1.76 c1.94 -0.14 3.32 0.5 3.94 2.1 c0.42 -1.36 1.76 -2.02 2.92 -2.1 c2.68 -0.2 4.28 1.1 4.28 4.34 l0 5.7 l-2.06 0 l0 -5.5 c0 -2 -0.52 -2.88 -2.22 -2.88 c-1.72 0 -2.44 1.08 -2.58 2.68 z M54.239999999999995 11.64 c-1.7 0 -3.08 1.42 -3.08 3.44 c0 2 1.38 3.44 3.08 3.44 s3.08 -1.44 3.08 -3.44 c0 -2.02 -1.38 -3.44 -3.08 -3.44 z M54.239999999999995 9.94 c2.84 0 5.14 2.2 5.14 5.14 s-2.3 5.12 -5.14 5.12 s-5.14 -2.18 -5.14 -5.12 s2.3 -5.14 5.14 -5.14 z"></path></g>
			</g>
		</svg>
	